 <svg  version="1.0" xmlns="http://www.w3.org/2000/svg"  width="134.000000pt" height="34.000000pt" viewBox="0 0 134.000000 34.000000"  preserveAspectRatio="xMidYMid meet">  <g transform="translate(0.000000,34.000000) scale(0.100000,-0.100000)" fill="#050505" stroke="none"> <path d="M70 236 c0 -32 -3 -35 -32 -38 -28 -2 -33 -7 -33 -28 0 -21 5 -26 33 -28 29 -3 32 -6 32 -38 0 -31 2 -34 30 -34 28 0 30 3 30 35 0 33 2 35 35 35 32 0 35 2 35 30 0 28 -3 30 -35 30 -33 0 -35 2 -35 35 0 32 -2 35 -30 35 -28 0 -30 -3 -30 -34z"/> <path d="M760 245 c0 -8 7 -15 15 -15 8 0 15 7 15 15 0 8 -7 15 -15 15 -8 0 -15 -7 -15 -15z"/> <path d="M260 165 c0 -69 3 -85 15 -85 11 0 15 12 15 48 l1 47 25 -48 c13 -26 26 -47 29 -47 3 0 16 21 29 48 l25 47 1 -47 c0 -36 4 -48 15 -48 12 0 15 16 15 85 0 105 -16 112 -59 28 l-29 -58 -28 58 c-41 82 -54 76 -54 -28z"/> <path d="M690 230 c0 -15 -7 -20 -29 -20 -52 0 -78 -62 -45 -108 12 -18 25 -22 65 -22 l49 0 0 85 c0 78 -2 85 -20 85 -13 0 -20 -7 -20 -20z m5 -69 c9 -29 -5 -52 -29 -49 -37 5 -34 68 3 68 11 0 22 -8 26 -19z"/> <path d="M477 192 c-10 -10 -17 -32 -17 -49 0 -52 52 -79 101 -53 32 18 21 31 -22 28 -27 -2 -43 2 -46 10 -3 8 9 12 41 12 38 0 46 3 46 18 0 46 -72 69 -103 34z m63 -17 c11 -13 8 -15 -21 -15 -32 1 -33 1 -15 15 24 18 21 18 36 0z"/> <path d="M760 145 c0 -51 3 -65 15 -65 12 0 15 14 15 65 0 51 -3 65 -15 65 -12 0 -15 -14 -15 -65z"/> <path d="M845 196 c-22 -16 -26 -76 -6 -100 23 -28 101 -16 101 16 0 4 -17 6 -37 5 -36 -2 -38 0 -38 28 0 32 31 48 46 24 6 -11 11 -11 20 -2 32 32 -46 58 -86 29z"/> <path d="M982 198 c-21 -21 -13 -29 23 -22 23 4 35 2 35 -5 0 -6 -11 -11 -24 -11 -27 0 -56 -23 -56 -44 0 -24 25 -35 73 -34 l47 1 0 44 c0 62 -14 83 -53 83 -18 0 -38 -5 -45 -12z m58 -73 c0 -19 -24 -30 -41 -19 -9 5 -7 11 6 21 24 17 35 17 35 -2z"/> <path d="M1110 144 c0 -50 3 -64 15 -64 11 0 15 12 15 44 0 36 4 46 20 51 33 10 23 31 -15 32 l-35 1 0 -64z"/> <path d="M1217 192 c-22 -25 -21 -75 1 -95 22 -20 73 -22 90 -5 21 21 13 27 -28 25 -53 -3 -56 17 -2 21 33 3 42 7 42 22 0 46 -71 68 -103 32z m63 -17 c11 -13 8 -15 -21 -15 -32 1 -33 1 -15 15 24 18 21 18 36 0z"/> </g> </svg> 